<?xml version="1.0" encoding="utf-8"?>
<!-- Generator: Adobe Illustrator 22.0.1, SVG Export Plug-In . SVG Version: 6.00 Build 0)  -->
<svg version="1.1" xmlns="http://www.w3.org/2000/svg" xmlns:xlink="http://www.w3.org/1999/xlink" x="0px" y="0px"
	 viewBox="0 0 129.5 129.5" style="enable-background:new 0 0 129.5 129.5;" xml:space="preserve">
<style type="text/css">
	.st0{fill:#33DDD4;}
	.st1{clip-path:url(#SVGID_3_);}
	.st2{clip-path:url(#SVGID_4_);}
	.st3{fill:#C7CFE2;}
	.st4{fill:#AFB9D2;}
	.st5{fill:#959CB3;}
	.st6{fill:#E4EAF6;}
	.st7{fill:#E6AF78;}
	.st8{fill:#EFF2FA;}
	.st9{fill:#D29B6E;}
	.st10{fill:#F0C087;}
	.st11{fill:#5B5D6E;}
	.st12{fill:#515262;}
	.st13{fill:#785550;}
	.st14{fill:#694B4B;}
	.st15{fill:#5A4146;}
	.st16{fill:#B4E1FA;}
	.st17{fill:#A0D2F0;}
</style>
<g id="Camada_2">
	<circle class="st0" cx="64.8" cy="64.8" r="64.8"/>
</g>
<g id="Camada_1">
	<g>
		<defs>
			<circle id="SVGID_1_" cx="64.8" cy="64.8" r="64.8"/>
		</defs>
		<defs>
			<circle id="SVGID_2_" cx="64.8" cy="64.8" r="64.8"/>
		</defs>
		<clipPath id="SVGID_3_">
			<use xlink:href="#SVGID_1_"  style="overflow:visible;"/>
		</clipPath>
		<clipPath id="SVGID_4_" class="st1">
			<use xlink:href="#SVGID_2_"  style="overflow:visible;"/>
		</clipPath>
		<g class="st2">
			<g transform="translate(20.627 35.7)">
				<path class="st3" d="M42.5,6.5h39.2c3.6,0,6.5,2.9,6.5,6.5V36c0,3.6-2.9,6.5-6.5,6.5H60.5v6.2c0,0.5-0.4,0.8-0.8,0.8
					c-0.2,0-0.4-0.1-0.6-0.2l-6.8-6.8h-9.8c-3.6,0-6.5-2.9-6.5-6.5V13.1C36,9.5,38.9,6.5,42.5,6.5z"/>
				<path class="st4" d="M80.1,19.6H55.6v-3.3h13c0.9,0,1.6-0.7,1.7-1.5c0.1-0.9-0.6-1.7-1.5-1.7c0,0-0.1,0-0.1,0H55.6V6.5h-3.3
					v22.9c0,3.6-2.9,6.5-6.5,6.5H36c0,1.2,0.3,2.3,0.9,3.3h8.9c5.4,0,9.8-4.4,9.8-9.8h6.5c0.8,0,1.5-0.6,1.7-1.4
					c0.1-0.9-0.5-1.7-1.4-1.9c-0.1,0-0.2,0-0.3,0h-6.5v-3.3h24.5c0.9,0,1.6-0.7,1.6-1.6c0,0,0-0.1,0-0.1
					C81.7,20.3,80.9,19.6,80.1,19.6z"/>
				<g transform="translate(67.031 13.079)">
					<path class="st5" d="M13.1,3.3H8.2c-0.9,0-1.6-0.7-1.6-1.6C6.5,0.7,7.3,0,8.2,0c0,0,0,0,0,0h4.9c0.9,0,1.6,0.7,1.6,1.6
						S14,3.3,13.1,3.3z"/>
					<path class="st5" d="M13.1,16.3H1.6c-0.9,0-1.6-0.7-1.6-1.6s0.7-1.6,1.6-1.6h11.4c0.9,0,1.6,0.7,1.6,1.6S14,16.3,13.1,16.3z"/>
				</g>
				<g transform="translate(55.587 32.698)">
					<path class="st4" d="M24.5,3.3H1.6C0.7,3.3,0,2.5,0,1.6S0.7,0,1.6,0h22.9c0.9,0,1.6,0.7,1.6,1.6S25.4,3.3,24.5,3.3z"/>
				</g>
				<path class="st6" d="M45.8,0H6.5C2.9,0,0,2.9,0,6.5v22.9C0,33,2.9,36,6.5,36h21.3v6.2c0,0.5,0.4,0.8,0.8,0.8
					c0.2,0,0.4-0.1,0.6-0.2L36,36h9.8c3.6,0,6.5-2.9,6.5-6.5V6.5C52.3,2.9,49.4,0,45.8,0z"/>
				<path class="st4" d="M13.1,9.8H8.2c-0.9,0-1.6-0.7-1.6-1.6s0.7-1.6,1.6-1.6h4.9c0.9,0,1.6,0.7,1.6,1.6S14,9.8,13.1,9.8L13.1,9.8
					z"/>
				<g transform="translate(6.54 6.54)">
					<path class="st3" d="M37.6,3.3H13.1c-0.9,0-1.6-0.7-1.6-1.6S12.2,0,13.1,0h24.5c0.9,0,1.6,0.7,1.6,1.6S38.5,3.3,37.6,3.3z"/>
					<path class="st3" d="M37.6,9.8h-36C0.7,9.8,0,9.1,0,8.2c0-0.9,0.7-1.6,1.6-1.6h36c0.9,0,1.6,0.7,1.6,1.6S38.5,9.8,37.6,9.8z"/>
				</g>
				<path class="st4" d="M44.1,22.9h-4.9c-0.9,0-1.6-0.7-1.6-1.6c0-0.9,0.7-1.6,1.6-1.6h4.9c0.9,0,1.6,0.7,1.6,1.6
					C45.8,22.2,45,22.9,44.1,22.9z"/>
				<g transform="translate(6.54 19.619)">
					<path class="st3" d="M26.2,3.3H1.6C0.7,3.3,0,2.5,0,1.6S0.7,0,1.6,0h24.5c0.9,0,1.6,0.7,1.6,1.6S27.1,3.3,26.2,3.3z"/>
					<path class="st3" d="M37.6,9.8h-36C0.7,9.8,0,9.1,0,8.2s0.7-1.6,1.6-1.6h36c0.9,0,1.6,0.7,1.6,1.6S38.5,9.8,37.6,9.8z"/>
				</g>
				<path class="st7" d="M28,82v-5.3H14.5V82l6.8,6L28,82z"/>
				<path class="st8" d="M38.5,84.5l-9.3-2.2c-0.1,0-0.3-0.1-0.4-0.2l-7.6,4.4L14,81.9c-0.2,0.2-0.4,0.3-0.7,0.4L4,84.5
					c-1.4,0.3-2.3,1.5-2.3,2.9v5.9c0,0.8,0.7,1.5,1.5,1.5c0,0,0,0,0,0h36.2c0.8,0,1.5-0.7,1.5-1.5l0,0v-5.9
					C40.9,86,39.9,84.8,38.5,84.5z"/>
				<path class="st9" d="M14.5,76.7v5.6C23,85.4,28,77.7,28,77.7v-0.9H14.5z"/>
				<path class="st10" d="M11.4,59.4l0.7,14.5c0.1,1.4,0.7,2.6,1.8,3.4l3.1,2.3c0.8,0.6,1.7,0.9,2.7,0.9h3c1,0,1.9-0.3,2.7-0.9
					l3.1-2.3c1.1-0.8,1.7-2.1,1.8-3.4l0.7-14.5L11.4,59.4L11.4,59.4z"/>
				<path class="st7" d="M19,62.4c3,0,7.5-0.8,8.6-3H11.4l0.7,14.5c0.1,1.4,0.7,2.6,1.8,3.4l3.1,2.3c0.8,0.6,1.7,0.9,2.7,0.9h1.5
					c-1.5,0-4.5-3-4.5-6.8v-9.1C16.8,63.4,17.8,62.4,19,62.4z"/>
				<g transform="translate(1.635 85.535)">
					<path class="st6" d="M33.7,4.4L38.6,0c0.4,0.5,0.7,1.2,0.6,1.9v5.9c0,0.8-0.7,1.5-1.5,1.5c0,0,0,0,0,0h-5.3V7.2
						C32.4,6.1,32.9,5.1,33.7,4.4z"/>
					<path class="st6" d="M5.5,4.4L0.6,0C0.2,0.5,0,1.2,0,1.9v5.9c0,0.8,0.7,1.5,1.5,1.5c0,0,0,0,0,0h5.3V7.2
						C6.8,6.1,6.3,5.1,5.5,4.4z"/>
				</g>
				<path class="st11" d="M23.1,94.8h-3.8l0.5-6.8h2.8L23.1,94.8z"/>
				<path class="st12" d="M23.1,86.5h-3.8V87c0,1,0.8,1.8,1.8,1.8h0.1c1,0,1.8-0.8,1.8-1.8L23.1,86.5L23.1,86.5z"/>
				<g transform="translate(12.199 80.123)">
					<path class="st6" d="M2.2,0.2l6.9,6.2c-1.5,0.8-3,1.8-4.3,2.9c-0.4,0.3-1,0.3-1.4-0.1C3.3,9.2,3.3,9.1,3.2,9L0,1.9l1-1.5
						C1.3,0,1.7-0.1,2.2,0.2C2.1,0.2,2.1,0.2,2.2,0.2z"/>
					<path class="st6" d="M16,0.2L9.1,6.4c1.5,0.8,3,1.8,4.3,2.9c0.4,0.3,1,0.3,1.4-0.1c0.1-0.1,0.1-0.1,0.1-0.2l3.2-7.1l-1-1.5
						C16.9,0,16.4-0.1,16,0.2C16,0.2,16,0.2,16,0.2z"/>
				</g>
				<path class="st13" d="M25.8,54.4l0.7,5c3.2,0.6,3.7,5.7,3.8,7.2c0,0.3,0.1,0.5,0.2,0.7l1.2,1.9c-0.2-1.9,0.3-3.8,1.5-5.3
					C33.3,63.9,33.9,51.3,25.8,54.4z"/>
				<path class="st10" d="M32.5,68.8l-0.9,3.4c-0.1,0.4-0.5,0.7-0.9,0.7l0,0c-0.5,0-0.8-0.3-0.9-0.8l-0.4-3.5
					c-0.1-0.9,0.5-1.6,1.4-1.7c0.1,0,0.1,0,0.2,0l0,0c0.9,0,1.6,0.7,1.6,1.6C32.6,68.6,32.6,68.7,32.5,68.8z"/>
				<path class="st14" d="M12.2,53l1.1,0.8c-5,3.7-4.1,10.1-4.1,10.1c1.5,1.5,1.5,5.3,1.5,5.3l1.5-1.5c0,0-0.6-4.4,2.3-6
					c2.6-1.6,5-0.8,7.3-0.8c6.3,0,8.1-2.4,7.8-5.3c-0.2-1.5-2.5-4.6-8.3-4.5C18.1,51.1,15.1,51.8,12.2,53z"/>
				<path class="st15" d="M11.7,60.2c-0.4-2.3,0.2-4.6,1.6-6.4c-5,3.7-4.1,10.1-4.1,10.1c1.5,1.5,1.5,5.3,1.5,5.3l1.5-1.5
					c0,0-0.6-4.4,2.3-6c2.6-1.6,5-0.8,7.3-0.8c0.9,0,1.8-0.1,2.7-0.2C19.6,60.8,16.8,57.2,11.7,60.2z"/>
				<path class="st7" d="M10,68.8l0.9,3.4c0.1,0.4,0.5,0.7,0.9,0.7l0,0c0.5,0,0.8-0.3,0.9-0.8l0.4-3.5c0.1-0.9-0.5-1.6-1.4-1.7
					c-0.1,0-0.1,0-0.2,0l0,0c-0.9,0-1.6,0.7-1.6,1.6C9.9,68.6,10,68.7,10,68.8z"/>
				<path class="st6" d="M30.3,93.3h-3.8c-0.8,0-1.5,0.7-1.5,1.5h6.8C31.8,94,31.1,93.3,30.3,93.3z"/>
				<path class="st14" d="M63.8,51.5c-15.2,0-13.5,18.5-13.5,31.9c0,0.5,0.3,1,0.7,1.2c7.9,4.5,17.6,4.5,25.5,0
					c0.4-0.3,0.7-0.7,0.7-1.2C77.3,70.1,79,51.5,63.8,51.5z"/>
				<path class="st15" d="M62.8,51.6c-14.2,0.8-12.6,18.8-12.5,31.9c0,0.5,0.3,1,0.7,1.2c3.9,2.2,8.3,3.4,12.8,3.4l3.8-26.9"/>
				<path class="st14" d="M63.8,51.5c-8.7,0-9.3,10.5-9.3,10.5c5-0.8,8.1,1.3,13.1-0.8l-3.8,26.9c4.5,0,8.9-1.2,12.8-3.4
					c0.4-0.3,0.7-0.7,0.7-1.2C77.3,70.1,79,51.5,63.8,51.5z"/>
				<path class="st13" d="M77.2,83.5c0.1-11.5,1.3-26.8-8-30.9c-0.3,1.6-0.2,3.2,0.3,4.7c1.9,3.8,3.8,3.8,5.8,6.7
					c1.9,10.6-3.7,21.8-5.5,23.3l0,0c2.4-0.6,4.7-1.5,6.8-2.7C77,84.4,77.2,84,77.2,83.5z"/>
				<path class="st7" d="M78.3,86.4l-8.6-3.6c-0.7-0.3-1.2-1-1.2-1.8v-2.3H59V81c0,0.8-0.5,1.5-1.2,1.8l-8.6,3.6
					c-1.1,0.4-1.8,1.5-1.8,2.7v3.8c0,1.1,0.9,1.9,1.9,1.9h0h28.9c1.1,0,1.9-0.9,1.9-1.9v0v-3.8C80.1,87.9,79.4,86.8,78.3,86.4z"/>
				<path class="st16" d="M78.3,86.4L70,82.9l-6.3,2.7l-6.3-2.7l-8.3,3.5c-1.1,0.4-1.8,1.5-1.8,2.7v3.8c0,1.1,0.9,1.9,1.9,1.9h0
					h28.9c1.1,0,1.9-0.9,1.9-1.9v0v-3.8C80.1,87.9,79.4,86.8,78.3,86.4z"/>
				<path class="st9" d="M68.6,78.7H59V81c0,0.8-0.5,1.5-1.2,1.8l-1.3,0.6C66.7,86,68.6,78.7,68.6,78.7z"/>
				<g transform="translate(47.412 81.361)">
					<path class="st17" d="M4.7,8.8L0.8,5.7C0.3,6.2,0,6.9,0,7.7v3.8c0,1.1,0.9,1.9,1.9,1.9h0h3.8V11C5.8,10.1,5.4,9.3,4.7,8.8z"/>
					<path class="st17" d="M32.7,11.5V7.7c0-0.7-0.3-1.5-0.8-2L28,8.8c-0.7,0.5-1.1,1.4-1.1,2.3v2.5h3.8
						C31.8,13.5,32.7,12.6,32.7,11.5C32.7,11.5,32.7,11.5,32.7,11.5z"/>
					<path class="st17" d="M16.5,11.5h-0.3c-0.5,0-0.8-0.4-0.8-0.8c0,0,0,0,0,0V4.3h1.9v6.4C17.3,11.2,16.9,11.5,16.5,11.5z"/>
					<path class="st17" d="M16.3,4.3l-5.5-4.1C10.5-0.1,10,0,9.8,0.3c0,0,0,0,0,0L8.7,2L12,6.7c0.2,0.3,0.7,0.4,1.1,0.2c0,0,0,0,0,0
						L16.3,4.3z"/>
					<path class="st17" d="M16.3,4.3l5.5-4.1c0.3-0.3,0.8-0.2,1.1,0.2c0,0,0,0,0,0L24,2l-3.4,4.7c-0.2,0.3-0.7,0.4-1.1,0.2
						c0,0,0,0,0,0L16.3,4.3z"/>
				</g>
				<path class="st10" d="M68.6,60.2c-4.8,4.8-14.2,1-14.2,8.7l0.6,5.7c0.1,1.3,0.9,2.4,2,3l5.5,3c0.9,0.5,1.9,0.5,2.8,0l5.5-3
					c1.1-0.6,1.8-1.7,2-3l0.7-6.7c0-0.5,0.1-1,0-1.4C73,63.9,69.5,62.1,68.6,60.2z"/>
				<path class="st7" d="M54.3,68.9l0.6,5.7c0.1,1.3,0.9,2.4,2,3l5.5,3c0.6,0.3,1.3,0.4,2,0.3l0,0c0,0-2.8-0.8-4.4-5.3
					c-0.5-1.4-1.2-8.6-0.6-9.5c1.2-1.7,7.8-1.9,9.8-5.2c-0.1-0.1-0.2-0.2-0.3-0.4l0,0c-0.1-0.1-0.2-0.3-0.2-0.4
					C63.8,65,54.3,61.2,54.3,68.9z"/>
				<path class="st17" d="M70.8,92.9h-2.5c-0.9,0-1.6,0.7-1.6,1.6v0.3h5.8v-0.3C72.4,93.6,71.7,92.9,70.8,92.9z"/>
			</g>
		</g>
	</g>
</g>
</svg>
